<svg version="1.0" xmlns="http://www.w3.org/2000/svg" width="133.333" height="133.333" viewBox="0 0 100 100"><path d="M15.2 10c-1.8 1.1-4.1 3.4-5.2 5.2-1.9 3.1-2 5.1-2 34.9C8 95 5 92.2 51.2 91.8 95.1 91.4 92 94.5 92 50c0-34.1-.2-35.3-6.9-39.7C81.7 8 81.3 8 50.1 8c-29.8 0-31.8.1-34.9 2zm67.7 3.4C87.7 16 88 17.8 88 50s-.3 34-5.1 36.6c-3.7 1.9-61.3 2.1-65.4.2-5.2-2.4-5.5-4.1-5.5-37 .1-32.4.3-33.7 5.1-36.4 3.6-2 61.9-2 65.8 0z"/><path d="M59.1 47.5 45.9 63l-8.2-7.4c-6.6-6.1-8.4-7.3-9.5-6.3-1.2 1 .1 2.6 7.7 9.9 5 4.9 9.6 8.8 10.1 8.8 1.4 0 29.1-33.1 28.7-34.3-.9-2.8-3.3-.7-15.6 13.8z"/></svg>