<svg xmlns="http://www.w3.org/2000/svg" width="100" height="100" style="shape-rendering:geometricprecision;text-rendering:geometricprecision;image-rendering:optimizequality;fill-rule:evenodd;clip-rule:evenodd"><path style="opacity:.982" fill="#fff" d="M12.5 7.5c24.669-.167 49.336 0 74 .5a14.497 14.497 0 0 1 4.5 4.5c.667 24.667.667 49.333 0 74a14.497 14.497 0 0 1-4.5 4.5c-24.667.667-49.333.667-74 0A14.497 14.497 0 0 1 8 86.5a1369.243 1369.243 0 0 1 0-74 32.83 32.83 0 0 1 4.5-5Zm12 17c5.493-1.322 7.993.678 7.5 6-2.153 1.944-4.653 2.444-7.5 1.5-2.586-2.494-2.586-4.994 0-7.5Zm-3 15h12v38h-12v-38Zm18 0h12a18.436 18.436 0 0 0 .5 6c4.49-4.76 9.99-6.26 16.5-4.5 5.82 3.47 8.654 8.637 8.5 15.5.5 6.992.666 13.992.5 21h-12c.166-8.34 0-16.673-.5-25-4.333-5.333-8.667-5.333-13 0-.5 8.327-.666 16.66-.5 25h-12v-38Z"/></svg>