<svg xmlns="http://www.w3.org/2000/svg" width="100" height="100" style="shape-rendering:geometricprecision;text-rendering:geometricprecision;image-rendering:optimizequality;fill-rule:evenodd;clip-rule:evenodd"><path style="opacity:.897" fill="#fff" d="M-.5 13.5h100v72H-.5v-72Zm4 4h92c-1.127 4.672-3.793 8.505-8 11.5a936.695 936.695 0 0 0-31 27c-4.667 3.333-9.333 3.333-14 0a1799.757 1799.757 0 0 0-38-33.5c-.952-1.545-1.285-3.212-1-5Zm0 12a251.034 251.034 0 0 1 25 21.5A342.771 342.771 0 0 0 4 70.5c-.5-13.663-.667-27.33-.5-41Zm90 0c1.33 6.466 1.997 13.3 2 20.5L95 70.5A342.771 342.771 0 0 0 70.5 51a711.374 711.374 0 0 0 23-21.5Zm-62 25c3.294 1.658 6.294 3.824 9 6.5 6 3.333 12 3.333 18 0a58.84 58.84 0 0 1 8-6.5l28 22c.952 1.545 1.285 3.212 1 5h-92c-.285-1.788.048-3.455 1-5a610.537 610.537 0 0 0 27-22Z"/></svg>