<svg xmlns="http://www.w3.org/2000/svg" width="100" height="100" style="shape-rendering:geometricprecision;text-rendering:geometricprecision;image-rendering:optimizequality;fill-rule:evenodd;clip-rule:evenodd"><path style="opacity:.755" fill="#fff" d="M18.5 5.5a32.437 32.437 0 0 1 8 .5 112.046 112.046 0 0 1 14 22.5 37.864 37.864 0 0 1-6 11.5c6.833 9.5 15 17.667 24.5 24.5 4.37-4.27 9.537-5.77 15.5-4.5A550.456 550.456 0 0 1 93 72.5c1.548 2.552 1.548 5.218 0 8A101.578 101.578 0 0 1 81.5 93c-10.344.998-19.678-1.669-28-8A184.938 184.938 0 0 1 14 45.5c-6.331-8.322-8.998-17.656-8-28a209.29 209.29 0 0 1 12.5-12Zm2 5c1.89-.204 3.39.463 4.5 2l9 14c.667 1.333.667 2.667 0 4-2.534 3.393-4.2 7.06-5 11a135.227 135.227 0 0 0 29.5 29 91.67 91.67 0 0 0 10-5.5c1.333-.667 2.667-.667 4 0A387.11 387.11 0 0 0 88 75.5c.667 1 .667 2 0 3a142.574 142.574 0 0 1-7.5 8.5c-2.866 1.457-5.866 1.79-9 1-13.382-5.693-25.048-13.86-35-24.5-10.287-9.45-18.453-20.45-24.5-33-1.913-4.03-1.913-8.03 0-12a94.358 94.358 0 0 1 8.5-8Z"/></svg>