<svg xmlns="http://www.w3.org/2000/svg" width="100" height="100" style="shape-rendering:geometricprecision;text-rendering:geometricprecision;image-rendering:optimizequality;fill-rule:evenodd;clip-rule:evenodd"><path style="opacity:.77" fill="#fff" d="M41.5 1.5C70.47-.03 83.636 13.636 81 42.5c-5.326 19.32-14.326 36.654-27 52-1.525 2.587-3.692 3.42-6.5 2.5C33.642 81.457 23.809 63.623 18 43.5c-3.762-20.835 4.072-34.835 23.5-42Zm1 5c16.553-2.147 27.72 4.52 33.5 20 1.35 11.6-.65 22.6-6 33-5.492 11.306-12.326 21.64-20.5 31-12.842-14.049-21.675-30.382-26.5-49-2.818-17.043 3.682-28.71 19.5-35Zm3 20c10.16-1.342 14.326 2.991 12.5 13-2.897 4.655-7.063 6.155-12.5 4.5-4.655-2.897-6.155-7.063-4.5-12.5 1.025-2.187 2.525-3.854 4.5-5Z"/><path style="opacity:.791" fill="#fff" d="M44.5 21.5c16.768-.472 22.268 7.195 16.5 23-6.197 5.604-13.03 6.437-20.5 2.5a17.834 17.834 0 0 1-4.5-5.5c-2.832-9.316.002-15.983 8.5-20Zm1 5c-1.975 1.146-3.475 2.813-4.5 5-1.655 5.437-.155 9.603 4.5 12.5 5.437 1.655 9.603.155 12.5-4.5 1.826-10.009-2.34-14.342-12.5-13Z"/></svg>