<svg version="1.0" xmlns="http://www.w3.org/2000/svg" width="133.333" height="133.333" viewBox="0 0 100 100"><path d="M38.6 5.6C16.1 11 1 34.2 4.8 57.3 11 94 56 108.6 82.1 82.5c32.9-33 1.8-87.9-43.5-76.9zM65 10.9C76.1 15.2 84.7 23.7 89.2 35c3.1 7.8 3.1 22.2 0 30-4.5 11.2-13 19.7-24.2 24.2-4.1 1.6-7.7 2.2-14.5 2.2-4.9.1-9.8-.2-10.8-.6-1.7-.7-1.7-.9.2-4.5 1-2.1 2.6-6.6 3.6-10l1.7-6.2 2.8 2c3.3 2.5 10.1 2.7 15.1.6 8.3-3.5 13.9-13.1 13.9-24 0-3.9-.7-8.4-1.5-10.5-2.3-5.5-8.2-10.9-14.2-13.2C42.4 17.9 23 29.8 23 48.5c0 6.9 2.8 13.6 6.8 16.3 2 1.3 2.2 1.2 3.2-1.4.8-2.1.8-3.5-.1-5.4-3.3-7.2-2.9-14.4 1.3-20.3 6.2-8.7 23.3-9.2 29.8-.9 6.7 8.4 3.8 25.1-5.2 29.5-4.5 2.2-8.5 1.4-10.1-2-.9-1.9-.7-4 .6-9.1C52.2 43.8 51.4 40 45.9 40c-5.3 0-8.3 5.5-7.4 13.4.5 3.7-.1 7.9-1.9 15.6-1.4 5.8-2.6 12.7-2.6 15.3v4.8l-4.2-2.3c-6.3-3.4-14-11.5-17.2-18C.9 44.9 13.5 16.7 39 9.5c7.2-2 18.8-1.4 26 1.4z" fill="#fff"/></svg>