<svg xmlns="http://www.w3.org/2000/svg" width="100" height="100" style="shape-rendering:geometricprecision;text-rendering:geometricprecision;image-rendering:optimizequality;fill-rule:evenodd;clip-rule:evenodd"><path style="opacity:.952" fill="#fff" d="M99.5 19.5v3a122.571 122.571 0 0 1-9.5 9C89.447 60.145 75.947 79.645 49.5 90c-17.416 4.673-34.083 2.84-50-5.5v-2c10.315.922 19.648-1.578 28-7.5-9.067-1.571-14.733-6.738-17-15.5 1.322-.17 2.489.163 3.5 1l1.5-1.5c-8.571-4.327-12.571-11.16-12-20.5 1.831 1.43 3.831 1.93 6 1.5C3.838 33.902 2.005 26.736 4 18.5c.196-1.786 1.03-3.12 2.5-4 11.283 12.475 25.283 19.308 42 20.5-1.843-11.634 2.824-19.634 14-24 8.455-1.844 15.955-.011 22.5 5.5a59.122 59.122 0 0 0 11.5-5c-.066 3.978-1.732 7.478-5 10.5 2.824-.107 5.491-.94 8-2.5Z"/></svg>