<?xml version="1.0" standalone="no"?>
<!DOCTYPE svg PUBLIC "-//W3C//DTD SVG 20010904//EN"
 "http://www.w3.org/TR/2001/REC-SVG-20010904/DTD/svg10.dtd">
<svg version="1.0" xmlns="http://www.w3.org/2000/svg"
 width="100.000000pt" height="100.000000pt" viewBox="0 0 100.000000 100.000000"
 preserveAspectRatio="xMidYMid meet">

<g transform="translate(0.000000,100.000000) scale(0.100000,-0.100000)"
fill="#000000" stroke="none">
<path d="M132 617 c-56 -56 -102 -109 -102 -117 0 -9 47 -62 105 -120 79 -79
107 -102 116 -93 9 9 0 26 -39 70 -27 32 -64 72 -82 88 l-31 30 438 5 c380 4
438 7 438 20 0 13 -57 15 -438 18 l-438 2 80 87 c76 82 88 102 65 110 -5 2
-55 -43 -112 -100z"/>
</g>
</svg>
