<?xml version="1.0" encoding="UTF-8"?>
<!DOCTYPE svg PUBLIC "-//W3C//DTD SVG 1.1//EN" "http://www.w3.org/Graphics/SVG/1.1/DTD/svg11.dtd">
<svg xmlns="http://www.w3.org/2000/svg" version="1.1" width="100px" height="100px" style="shape-rendering:geometricPrecision; text-rendering:geometricPrecision; image-rendering:optimizeQuality; fill-rule:evenodd; clip-rule:evenodd" xmlns:xlink="http://www.w3.org/1999/xlink">
<g><path style="opacity:0.982" fill="#ffffff" d="M 12.5,7.5 C 37.1689,7.33336 61.8356,7.50003 86.5,8C 88.3333,9.16667 89.8333,10.6667 91,12.5C 91.6667,37.1667 91.6667,61.8333 91,86.5C 89.8333,88.3333 88.3333,89.8333 86.5,91C 61.8333,91.6667 37.1667,91.6667 12.5,91C 10.6667,89.8333 9.16667,88.3333 8,86.5C 7.33333,61.8333 7.33333,37.1667 8,12.5C 9.36569,10.6383 10.8657,8.97167 12.5,7.5 Z M 24.5,24.5 C 29.9933,23.178 32.4933,25.178 32,30.5C 29.8471,32.4439 27.3471,32.9439 24.5,32C 21.9142,29.506 21.9142,27.006 24.5,24.5 Z M 21.5,39.5 C 25.5,39.5 29.5,39.5 33.5,39.5C 33.5,52.1667 33.5,64.8333 33.5,77.5C 29.5,77.5 25.5,77.5 21.5,77.5C 21.5,64.8333 21.5,52.1667 21.5,39.5 Z M 39.5,39.5 C 43.5,39.5 47.5,39.5 51.5,39.5C 51.3379,41.5273 51.5045,43.5273 52,45.5C 56.4908,40.7409 61.9908,39.2409 68.5,41C 74.3203,44.4701 77.1536,49.6367 77,56.5C 77.4996,63.4921 77.6663,70.4921 77.5,77.5C 73.5,77.5 69.5,77.5 65.5,77.5C 65.6664,69.16 65.4997,60.8267 65,52.5C 60.6667,47.1667 56.3333,47.1667 52,52.5C 51.5003,60.8267 51.3336,69.16 51.5,77.5C 47.5,77.5 43.5,77.5 39.5,77.5C 39.5,64.8333 39.5,52.1667 39.5,39.5 Z"/></g>
</svg>
