<?xml version="1.0" encoding="UTF-8"?>
<!DOCTYPE svg PUBLIC "-//W3C//DTD SVG 1.1//EN" "http://www.w3.org/Graphics/SVG/1.1/DTD/svg11.dtd">
<svg xmlns="http://www.w3.org/2000/svg" version="1.1" width="100px" height="100px" style="shape-rendering:geometricPrecision; text-rendering:geometricPrecision; image-rendering:optimizeQuality; fill-rule:evenodd; clip-rule:evenodd" xmlns:xlink="http://www.w3.org/1999/xlink">
<g><path style="opacity:0.897" fill="#ffffff" d="M -0.5,13.5 C 32.8333,13.5 66.1667,13.5 99.5,13.5C 99.5,37.5 99.5,61.5 99.5,85.5C 66.1667,85.5 32.8333,85.5 -0.5,85.5C -0.5,61.5 -0.5,37.5 -0.5,13.5 Z M 3.5,17.5 C 34.1667,17.5 64.8333,17.5 95.5,17.5C 94.3734,22.1721 91.7068,26.0054 87.5,29C 76.9796,37.7641 66.6463,46.7641 56.5,56C 51.8333,59.3333 47.1667,59.3333 42.5,56C 29.9817,44.6473 17.3151,33.4807 4.5,22.5C 3.54811,20.9547 3.21478,19.288 3.5,17.5 Z M 3.5,29.5 C 12.2363,36.0601 20.5696,43.2268 28.5,51C 20.0452,57.1197 11.8785,63.6197 4,70.5C 3.5001,56.8374 3.33343,43.1707 3.5,29.5 Z M 93.5,29.5 C 94.8303,35.9658 95.497,42.7991 95.5,50C 95.3333,56.8333 95.1667,63.6667 95,70.5C 87.1215,63.6197 78.9548,57.1197 70.5,51C 78.3638,43.967 86.0305,36.8003 93.5,29.5 Z M 31.5,54.5 C 34.7945,56.1577 37.7945,58.3244 40.5,61C 46.5,64.3333 52.5,64.3333 58.5,61C 60.9833,58.5938 63.65,56.4271 66.5,54.5C 75.8333,61.8333 85.1667,69.1667 94.5,76.5C 95.4519,78.0453 95.7852,79.712 95.5,81.5C 64.8333,81.5 34.1667,81.5 3.5,81.5C 3.21478,79.712 3.54811,78.0453 4.5,76.5C 13.7537,69.3872 22.7537,62.0538 31.5,54.5 Z"/></g>
</svg>
