<?xml version="1.0" encoding="UTF-8"?>
<!DOCTYPE svg PUBLIC "-//W3C//DTD SVG 1.1//EN" "http://www.w3.org/Graphics/SVG/1.1/DTD/svg11.dtd">
<svg xmlns="http://www.w3.org/2000/svg" version="1.1" width="100px" height="100px" style="shape-rendering:geometricPrecision; text-rendering:geometricPrecision; image-rendering:optimizeQuality; fill-rule:evenodd; clip-rule:evenodd" xmlns:xlink="http://www.w3.org/1999/xlink">
<g><path style="opacity:0.77" fill="#fff" d="M 41.5,1.5 C 70.4697,-0.0306586 83.6363,13.636 81,42.5C 75.6741,61.8208 66.6741,79.1541 54,94.5C 52.4749,97.0867 50.3083,97.9201 47.5,97C 33.6424,81.4569 23.809,63.6235 18,43.5C 14.2383,22.6654 22.0716,8.66537 41.5,1.5 Z M 42.5,6.5 C 59.053,4.35295 70.2197,11.0196 76,26.5C 77.3503,38.1009 75.3503,49.1009 70,59.5C 64.5076,70.8057 57.6743,81.1391 49.5,90.5C 36.658,76.4512 27.8246,60.1178 23,41.5C 20.1816,24.4574 26.6816,12.7908 42.5,6.5 Z M 45.5,26.5 C 55.6591,25.1581 59.8257,29.4914 58,39.5C 55.1034,44.1549 50.9367,45.6549 45.5,44C 40.8451,41.1034 39.3451,36.9367 41,31.5C 42.025,29.313 43.525,27.6464 45.5,26.5 Z"/></g>
<g><path style="opacity:0.791" fill="#fff" d="M 44.5,21.5 C 61.268,21.0284 66.768,28.6951 61,44.5C 54.8025,50.1041 47.9692,50.9374 40.5,47C 38.6217,45.4571 37.1217,43.6238 36,41.5C 33.1683,32.184 36.0017,25.5173 44.5,21.5 Z M 45.5,26.5 C 43.525,27.6464 42.025,29.313 41,31.5C 39.3451,36.9367 40.8451,41.1034 45.5,44C 50.9367,45.6549 55.1034,44.1549 58,39.5C 59.8257,29.4914 55.6591,25.1581 45.5,26.5 Z"/></g>
</svg>
