<?xml version="1.0" standalone="no"?>
<!DOCTYPE svg PUBLIC "-//W3C//DTD SVG 20010904//EN"
 "http://www.w3.org/TR/2001/REC-SVG-20010904/DTD/svg10.dtd">
<svg version="1.0" xmlns="http://www.w3.org/2000/svg"
 width="100.000000pt" height="100.000000pt" viewBox="0 0 100.000000 100.000000"
 preserveAspectRatio="xMidYMid meet">

<g transform="translate(0.000000,100.000000) scale(0.100000,-0.100000)"
fill="#ffffff" stroke="none">
<path d="M386 944 c-225 -54 -376 -286 -338 -517 62 -367 512 -513 773 -252
329 330 18 879 -435 769z m264 -53 c111 -43 197 -128 242 -241 31 -78 31 -222
0 -300 -45 -112 -130 -197 -242 -242 -41 -16 -77 -22 -145 -22 -49 -1 -98 2
-108 6 -17 7 -17 9 2 45 10 21 26 66 36 100 l17 62 28 -20 c33 -25 101 -27
151 -6 83 35 139 131 139 240 0 39 -7 84 -15 105 -23 55 -82 109 -142 132
-189 71 -383 -48 -383 -235 0 -69 28 -136 68 -163 20 -13 22 -12 32 14 8 21 8
35 -1 54 -33 72 -29 144 13 203 62 87 233 92 298 9 67 -84 38 -251 -52 -295
-45 -22 -85 -14 -101 20 -9 19 -7 40 6 91 29 114 21 152 -34 152 -53 0 -83
-55 -74 -134 5 -37 -1 -79 -19 -156 -14 -58 -26 -127 -26 -153 l0 -48 -42 23
c-63 34 -140 115 -172 180 -117 239 9 521 264 593 72 20 188 14 260 -14z"/>
</g>
</svg>
