<?xml version="1.0" encoding="UTF-8"?>
<!DOCTYPE svg PUBLIC "-//W3C//DTD SVG 1.1//EN" "http://www.w3.org/Graphics/SVG/1.1/DTD/svg11.dtd">
<svg xmlns="http://www.w3.org/2000/svg" version="1.1" width="100px" height="100px" style="shape-rendering:geometricPrecision; text-rendering:geometricPrecision; image-rendering:optimizeQuality; fill-rule:evenodd; clip-rule:evenodd" xmlns:xlink="http://www.w3.org/1999/xlink">
<g><path style="opacity:0.952" fill="#ffffff" d="M 99.5,19.5 C 99.5,20.5 99.5,21.5 99.5,22.5C 96.5313,25.6334 93.3647,28.6334 90,31.5C 89.4469,60.1451 75.9469,79.6451 49.5,90C 32.084,94.6729 15.4173,92.8395 -0.5,84.5C -0.5,83.8333 -0.5,83.1667 -0.5,82.5C 9.81457,83.4224 19.1479,80.9224 27.5,75C 18.4335,73.4288 12.7668,68.2621 10.5,59.5C 11.8221,59.33 12.9887,59.6634 14,60.5C 14.5,60 15,59.5 15.5,59C 6.92859,54.6735 2.92859,47.8402 3.5,38.5C 5.33132,39.9294 7.33132,40.4294 9.5,40C 3.83821,33.9023 2.00488,26.7356 4,18.5C 4.19616,16.7139 5.02949,15.3805 6.5,14.5C 17.7826,26.975 31.7826,33.8083 48.5,35C 46.6575,23.3664 51.3242,15.3664 62.5,11C 70.9547,9.15568 78.4547,10.989 85,16.5C 89.0389,15.2287 92.8723,13.562 96.5,11.5C 96.4344,15.478 94.7677,18.978 91.5,22C 94.3244,21.8932 96.9911,21.0599 99.5,19.5 Z"/></g>
</svg>
