<?xml version="1.0" standalone="no"?>
<!DOCTYPE svg PUBLIC "-//W3C//DTD SVG 20010904//EN"
 "http://www.w3.org/TR/2001/REC-SVG-20010904/DTD/svg10.dtd">
<svg version="1.0" xmlns="http://www.w3.org/2000/svg"
 width="100.000000pt" height="100.000000pt" viewBox="0 0 100.000000 100.000000"
 preserveAspectRatio="xMidYMid meet">

<g transform="translate(0.000000,100.000000) scale(0.100000,-0.100000)"
fill="#000000" stroke="none">
<path d="M152 900 c-18 -11 -41 -34 -52 -52 -19 -31 -20 -51 -20 -349 0 -449
-30 -421 432 -417 439 4 408 -27 408 418 0 341 -2 353 -69 397 -34 23 -38 23
-350 23 -298 0 -318 -1 -349 -20z m677 -34 c48 -26 51 -44 51 -366 0 -322 -3
-340 -51 -366 -37 -19 -613 -21 -654 -2 -52 24 -55 41 -55 370 1 324 3 337 51
364 36 20 619 20 658 0z"/>
</g>
</svg>
